# xmcd
#
# Track frame offsets:
#	150
#	18783
#	33430
#	50861
#	71826
#	93650
#	112800
#	124892
#	145265
#	159532
#	177394
#	194903
#	214903
#	229589
#	249660
#	268317
#
# Disc length: 3764 seconds
#
# Revision: 0
# Processed by: cddbd v1.5.1PL0 Copyright (c) Steve Scherf et al.
# Submitted via: dBpowerAMP V4.0
#
DISCID=f70eb210
DTITLE=Bo Kaspers Orkester - Blandat
DYEAR=1900
DGENRE=Blues
TTITLE0=Ett and noll
TTITLE1=Söndag i sängen
TTITLE2=I botten på glaset
TTITLE3=Du kan
TTITLE4=En världsomsegling under havet
TTITLE5=Köpenhamn
TTITLE6=Det går en man omkring i mina skor
TTITLE7=Hennes syster sa
TTITLE8=Hål
TTITLE9=Mindre smakar mer
TTITLE10=Hon är så söt
TTITLE11=Puss
TTITLE12=Simtur
TTITLE13=Amerika
TTITLE14=Snäll och dum
TTITLE15=Vi tar in på hotell
EXTD=
EXTT0=
EXTT1=
EXTT2=
EXTT3=
EXTT4=
EXTT5=
EXTT6=
EXTT7=
EXTT8=
EXTT9=
EXTT10=
EXTT11=
EXTT12=
EXTT13=
EXTT14=
EXTT15=
PLAYORDER=
